<?xml version="1.0" encoding="UTF-8" standalone="no"?>
<svg width="463px" height="105px" viewBox="0 0 463 105" version="1.1" xmlns="http://www.w3.org/2000/svg" xmlns:xlink="http://www.w3.org/1999/xlink" xmlns:sketch="http://www.bohemiancoding.com/sketch/ns">
    <!-- Generator: Sketch 3.2.2 (9983) - http://www.bohemiancoding.com/sketch -->
    <title>sampleOn</title>
    <desc>Created with Sketch.</desc>
    <defs></defs>
    <g id="Page-1" stroke="none" stroke-width="1" fill="none" fill-rule="evenodd" sketch:type="MSPage">
        <g id="Group" sketch:type="MSLayerGroup" transform="translate(-1.000000, -1.000000)">
            <g id="Group-6" transform="translate(27.000000, 96.000000)"></g>
            <g id="Group-8" transform="translate(27.000000, 2.000000)">
                <path d="M0.5,7.5 L429.970612,7.5" id="Line" stroke="#DCDCDC" stroke-width="3" stroke-linecap="square" sketch:type="MSShapeGroup"></path>
                <path id="Line-decoration-1" d="M0.5,4.5 C0.5,6.6 0.5,8.4 0.5,10.5" stroke="#DCDCDC" stroke-width="3" stroke-linecap="square"></path>
                <path d="M6.5,7.5 L435.970612,7.5" id="Line-2" stroke="#DCDCDC" stroke-linecap="square" sketch:type="MSShapeGroup"></path>
                <path id="Line-2-decoration-1" d="M424.7,10.5 C428.48,9.45 431.72,8.55 435.5,7.5 C431.72,6.45 428.48,5.55 424.7,4.5" stroke="#DCDCDC" stroke-linecap="square"></path>
                <circle id="Oval-9" fill="#F6A623" sketch:type="MSShapeGroup" cx="35" cy="8" r="8"></circle>
                <circle id="Oval-10" fill="#D0011B" sketch:type="MSShapeGroup" cx="66" cy="8" r="8"></circle>
                <circle id="Oval-11" fill="#F6A623" sketch:type="MSShapeGroup" cx="138" cy="8" r="8"></circle>
                <circle id="Oval-12" fill="#7ED321" sketch:type="MSShapeGroup" cx="160" cy="8" r="8"></circle>
                <circle id="Oval-13" fill="#F6A623" sketch:type="MSShapeGroup" cx="182" cy="8" r="8"></circle>
                <circle id="Oval-14" fill="#D0011B" sketch:type="MSShapeGroup" cx="294" cy="8" r="8"></circle>
                <circle id="Oval-15" fill="#F6A623" sketch:type="MSShapeGroup" cx="349" cy="8" r="8"></circle>
                <circle id="Oval-16" fill="#7ED321" sketch:type="MSShapeGroup" cx="381" cy="8" r="8"></circle>
            </g>
            <g id="Group-5" transform="translate(27.000000, 31.000000)">
                <path d="M0.5,7.5 L429.970612,7.5" id="Line" stroke="#DCDCDC" stroke-width="3" stroke-linecap="square" sketch:type="MSShapeGroup"></path>
                <path id="Line-decoration-1" d="M0.5,4.5 C0.5,6.6 0.5,8.4 0.5,10.5" stroke="#DCDCDC" stroke-width="3" stroke-linecap="square"></path>
                <path d="M6.5,7.5 L435.970612,7.5" id="Line-2" stroke="#DCDCDC" stroke-linecap="square" sketch:type="MSShapeGroup"></path>
                <path id="Line-2-decoration-1" d="M424.7,10.5 C428.48,9.45 431.72,8.55 435.5,7.5 C431.72,6.45 428.48,5.55 424.7,4.5" stroke="#DCDCDC" stroke-linecap="square"></path>
                <circle id="Oval-9" fill="#565656" sketch:type="MSShapeGroup" cx="95" cy="8" r="8"></circle>
                <circle id="Oval-12" fill="#565656" sketch:type="MSShapeGroup" cx="220" cy="8" r="8"></circle>
                <circle id="Oval-13" fill="#565656" sketch:type="MSShapeGroup" cx="242" cy="8" r="8"></circle>
                <circle id="Oval-14" fill="#565656" sketch:type="MSShapeGroup" cx="323" cy="8" r="8"></circle>
                <circle id="Oval-15" fill="#565656" sketch:type="MSShapeGroup" cx="409" cy="8" r="8"></circle>
            </g>
            <path d="M27.5,97.5 L456.970612,97.5" id="Line" stroke="#DCDCDC" stroke-width="3" stroke-linecap="square" sketch:type="MSShapeGroup"></path>
            <path id="Line-decoration-1" d="M27.5,94.5 C27.5,96.6 27.5,98.4 27.5,100.5" stroke="#DCDCDC" stroke-width="3" stroke-linecap="square"></path>
            <path d="M33.5,97.5 L462.970612,97.5" id="Line-2" stroke="#DCDCDC" stroke-linecap="square" sketch:type="MSShapeGroup"></path>
            <path id="Line-2-decoration-1" d="M451.7,100.5 C455.48,99.45 458.72,98.55 462.5,97.5 C458.72,96.45 455.48,95.55 451.7,94.5" stroke="#DCDCDC" stroke-linecap="square"></path>
            <g id="Group-7" transform="translate(114.000000, 90.000000)" sketch:type="MSShapeGroup">
                <circle id="Oval-9" fill="#D0011B" cx="8" cy="8" r="8"></circle>
                <circle id="Oval-12" fill="#F6A623" cx="133" cy="8" r="8"></circle>
                <circle id="Oval-13" fill="#F6A623" cx="155" cy="8" r="8"></circle>
                <circle id="Oval-14" fill="#D0011B" cx="236" cy="8" r="8"></circle>
                <circle id="Oval-15" fill="#7ED321" cx="322" cy="8" r="8"></circle>
            </g>
            <text id="↓-sampleOn-B-A" sketch:type="MSTextLayer" font-family="Lucida Grande" font-size="18" font-weight="normal" sketch:alignment="middle" fill="#292F33">
                <tspan x="172.222168" y="76">↓ </tspan>
                <tspan x="189.527832" y="76" font-family="Gotham" font-weight="313">sampleOn B A</tspan>
            </text>
            <text id="A" sketch:type="MSTextLayer" font-family="Gotham" font-size="18" font-weight="313" sketch:alignment="middle" fill="#292F33">
                <tspan x="0.89" y="14.761">A</tspan>
            </text>
            <text id="B" sketch:type="MSTextLayer" font-family="Gotham" font-size="18" font-weight="313" sketch:alignment="middle" fill="#292F33">
                <tspan x="1.502" y="43.761">B</tspan>
            </text>
            <text id="C" sketch:type="MSTextLayer" font-family="Gotham" font-size="18" font-weight="313" sketch:alignment="middle" fill="#292F33">
                <tspan x="1.358" y="103.761">C</tspan>
            </text>
        </g>
    </g>
</svg>