<?xml version="1.0" encoding="UTF-8" standalone="no"?>
<svg width="491px" height="386px" viewBox="0 0 491 386" version="1.1" xmlns="http://www.w3.org/2000/svg" xmlns:xlink="http://www.w3.org/1999/xlink" xmlns:sketch="http://www.bohemiancoding.com/sketch/ns">
    <!-- Generator: Sketch 3.2.2 (9983) - http://www.bohemiancoding.com/sketch -->
    <title>signal-graph</title>
    <desc>Created with Sketch.</desc>
    <defs></defs>
    <g id="Page-1" stroke="none" stroke-width="1" fill="none" fill-rule="evenodd" sketch:type="MSPage">
        <g id="Rectangle-3-+-Rectangle-1-+-Rectangle-4" sketch:type="MSLayerGroup" transform="translate(2.000000, 2.000000)">
            <g id="Group">
                <rect id="Rectangle-3" fill="#F6A623" sketch:type="MSShapeGroup" x="404.47369" y="217.871132" width="27.3177594" height="25.8095325"></rect>
                <path d="M346.96844,148.638781 C346.96844,146.429582 348.751999,144.638672 350.962957,144.638672 L484.037043,144.638672 C486.243154,144.638672 488.03156,146.432706 488.03156,148.638781 L488.03156,217.812108 C488.03156,220.021307 486.248001,221.812217 484.037043,221.812217 L350.962957,221.812217 C348.756846,221.812217 346.96844,220.018183 346.96844,217.812108 L346.96844,148.638781 Z M351.39643,149.066662 L484.23614,149.066662 L484.23614,218.016797 L351.39643,218.016797 L351.39643,149.066662 Z" id="Rectangle-1" fill="#F6A623" sketch:type="MSShapeGroup"></path>
                <rect id="Rectangle-4" fill="#F6A623" sketch:type="MSShapeGroup" x="394" y="239" width="48" height="5"></rect>
                <circle id="Oval-1" fill="#B8E986" sketch:type="MSShapeGroup" cx="199.5" cy="120.5" r="19.5"></circle>
                <circle id="Oval-2" fill="#B8E986" sketch:type="MSShapeGroup" cx="160.5" cy="190.5" r="19.5"></circle>
                <circle id="Oval-3" fill="#B8E986" sketch:type="MSShapeGroup" cx="238.5" cy="190.5" r="19.5"></circle>
                <circle id="Oval-4" fill="#B8E986" sketch:type="MSShapeGroup" cx="199.5" cy="259.5" r="19.5"></circle>
                <path d="M419.117188,141.792966 C423.9375,-43.8906267 199.5,-32.2578125 199.5,90.5165359" id="Path-1" stroke="#979797" stroke-width="3" sketch:type="MSShapeGroup"></path>
                <path id="Path-1-decoration-1" d="M197.235264,78.3949691 C197.882187,82.3602808 198.565616,85.7010333 199.504847,89.5297934 C200.663162,85.8025233 201.768973,82.6810516 203.189848,79.1318076" stroke="#979797" stroke-width="3"></path>
                <path d="M170.05338,214.454283 L186.05338,236.454283" id="Line-4" stroke="#979797" stroke-width="3" stroke-linecap="square" sketch:type="MSShapeGroup"></path>
                <path id="Line-4-decoration-1" d="M185.934016,236.290158 C184.559899,232.615555 183.382086,229.465896 182.00797,225.791293 C180.309624,227.026453 178.853899,228.085162 177.155553,229.320323 C180.228015,231.759765 182.861554,233.850716 185.934016,236.290158 C185.934016,236.290158 185.934016,236.290158 185.934016,236.290158 Z" stroke="#979797" stroke-width="3" stroke-linecap="square"></path>
                <path d="M236.78333,212.954283 L219.55338,236.53211" id="Line-3" stroke="#979797" stroke-width="3" stroke-linecap="square" sketch:type="MSShapeGroup"></path>
                <path id="Line-3-decoration-1" d="M219.672849,236.368626 C222.750872,233.936205 225.389178,231.851273 228.467201,229.418852 C226.77168,228.179817 225.318376,227.117787 223.622855,225.878752 C222.240353,229.550208 221.055351,232.69717 219.672849,236.368626 C219.672849,236.368626 219.672849,236.368626 219.672849,236.368626 Z" stroke="#979797" stroke-width="3" stroke-linecap="square"></path>
                <path d="M201.55338,283.10956 C201.553372,384.410949 421.140357,420.664928 421.140356,252.954283" id="Path-20" stroke="#979797" stroke-width="3" sketch:type="MSShapeGroup"></path>
                <path id="Path-20-decoration-1" d="M423.783704,264.513837 C422.934458,260.628887 422.139833,257.338523 421.139471,253.536927 C420.040399,257.289758 419.037763,260.468381 417.795582,264.136496" stroke="#979797" stroke-width="3"></path>
                <path d="M189,142.671875 L171.555759,164.045717" id="Path-8" stroke="#979797" stroke-width="3" sketch:type="MSShapeGroup"></path>
                <path id="Path-8-decoration-1" d="M176.432652,153.325596 C174.856046,156.917978 173.504669,159.997163 171.928062,163.589546 C175.131599,161.324981 177.877487,159.383925 181.081023,157.119359" stroke="#979797" stroke-width="3"></path>
                <path d="M131.409085,184.5 L99.4373834,184.5" id="Path-9" stroke="#979797" stroke-width="3" sketch:type="MSShapeGroup"></path>
                <path id="Path-9-decoration-1" d="M111.209085,181.5 C107.429085,182.55 104.189085,183.45 100.409085,184.5 C104.189085,185.55 107.429085,186.45 111.209085,187.5" stroke="#979797" stroke-width="3"></path>
                <path d="M131.409085,196.5 L99.4373834,196.5" id="Path-10" stroke="#979797" stroke-width="3" sketch:type="MSShapeGroup"></path>
                <path id="Path-10-decoration-1" d="M119.809085,193.5 C123.589085,194.55 126.829085,195.45 130.609085,196.5 C126.829085,197.55 123.589085,198.45 119.809085,199.5" stroke="#979797" stroke-width="3"></path>
                <path d="M214.184665,142.671875 L231.628906,164.045717" id="Path-7" stroke="#979797" stroke-width="3" sketch:type="MSShapeGroup"></path>
                <path id="Path-7-decoration-1" d="M222.103642,157.119359 C225.307178,159.383925 228.053067,161.324981 231.256603,163.589546 C229.679997,159.997163 228.32862,156.917978 226.752013,153.325596" stroke="#979797" stroke-width="3"></path>
                <g transform="translate(0.000000, 164.000000)" id="Oval-5" stroke="#4990E2" stroke-width="3" fill="#F1F1F1" sketch:type="MSShapeGroup">
                    <path d="M70.9272727,41.8961508 C71.1766678,41.9125661 71.4282694,41.9209033 71.6818182,41.9209033 C77.9326774,41.9209033 83,36.8535807 83,30.6027215 C83,24.3518623 77.9326774,19.2845397 71.6818182,19.2845397 C71.2673822,19.2845397 70.8581487,19.3068145 70.4552497,19.3502322 C67.8554392,14.8033465 62.9582952,11.7390851 57.3454545,11.7390851 C55.682716,11.7390851 54.0827849,12.007996 52.5867792,12.5046998 C49.2722403,5.63196518 42.2385888,0.889833599 34.097353,0.889833599 C26.2515516,0.889833599 19.4344074,5.29403904 15.983335,11.7650355 C15.6880591,11.7478154 15.3905036,11.7390851 15.0909091,11.7390851 C6.75643014,11.7390851 0,18.4955153 0,26.8299942 C0,35.1644732 6.75643014,41.9209033 15.0909091,41.9209033 L70.9272727,41.9209033 L70.9272727,41.8961508 Z"></path>
                </g>
            </g>
        </g>
    </g>
</svg>