<?xml version="1.0" encoding="UTF-8" standalone="no"?>
<svg width="491px" height="386px" viewBox="0 0 491 386" version="1.1" xmlns="http://www.w3.org/2000/svg" xmlns:xlink="http://www.w3.org/1999/xlink" xmlns:sketch="http://www.bohemiancoding.com/sketch/ns">
    <!-- Generator: Sketch 3.2.2 (9983) - http://www.bohemiancoding.com/sketch -->
    <title>signal-graph</title>
    <desc>Created with Sketch.</desc>
    <defs></defs>
    <g id="Page-1" stroke="none" stroke-width="1" fill="none" fill-rule="evenodd" sketch:type="MSPage">
        <g id="Rectangle-3-+-Rectangle-1-+-Rectangle-4" sketch:type="MSLayerGroup" transform="translate(8.000000, 2.000000)">
            <g id="Group">
                <rect id="Rectangle-3" fill="#F6A623" sketch:type="MSShapeGroup" x="398.47369" y="220.48358" width="27.3177594" height="19.6260882"></rect>
                <path d="M340.96844,148.638781 C340.96844,146.429582 342.751999,144.638672 344.962957,144.638672 L478.037043,144.638672 C480.243154,144.638672 482.03156,146.432706 482.03156,148.638781 L482.03156,217.812108 C482.03156,220.021307 480.248001,221.812217 478.037043,221.812217 L344.962957,221.812217 C342.756846,221.812217 340.96844,220.018183 340.96844,217.812108 L340.96844,148.638781 Z M345.39643,149.066662 L478.23614,149.066662 L478.23614,218.016797 L345.39643,218.016797 L345.39643,149.066662 Z" id="Rectangle-1" fill="#F6A623" sketch:type="MSShapeGroup"></path>
                <rect id="Rectangle-4" fill="#F6A623" sketch:type="MSShapeGroup" x="388" y="239" width="48" height="5"></rect>
                <circle id="Oval-1" fill="#B8E986" sketch:type="MSShapeGroup" cx="193.5" cy="120.5" r="19.5"></circle>
                <circle id="Oval-2" fill="#B8E986" sketch:type="MSShapeGroup" cx="154.5" cy="190.5" r="19.5"></circle>
                <circle id="Oval-3" fill="#B8E986" sketch:type="MSShapeGroup" cx="232.5" cy="190.5" r="19.5"></circle>
                <circle id="Oval-4" fill="#B8E986" sketch:type="MSShapeGroup" cx="193.5" cy="259.5" r="19.5"></circle>
                <path d="M413.117188,141.792966 C417.9375,-43.8906267 193.5,-32.2578125 193.5,90.5165359" id="Path-1" stroke="#979797" stroke-width="3" sketch:type="MSShapeGroup"></path>
                <path id="Path-1-decoration-1" d="M191.235264,78.3949691 C191.882187,82.3602808 192.565616,85.7010333 193.504847,89.5297934 C194.663162,85.8025233 195.768973,82.6810516 197.189848,79.1318076" stroke="#979797" stroke-width="3"></path>
                <path d="M164.05338,214.454283 L180.05338,236.454283" id="Line-4" stroke="#979797" stroke-width="3" stroke-linecap="square" sketch:type="MSShapeGroup"></path>
                <path id="Line-4-decoration-1" d="M179.934016,236.290158 C178.559899,232.615555 177.382086,229.465896 176.00797,225.791293 C174.309624,227.026453 172.853899,228.085162 171.155553,229.320323 C174.228015,231.759765 176.861554,233.850716 179.934016,236.290158 C179.934016,236.290158 179.934016,236.290158 179.934016,236.290158 Z" stroke="#979797" stroke-width="3" stroke-linecap="square"></path>
                <path d="M230.78333,212.954283 L213.55338,236.53211" id="Line-3" stroke="#979797" stroke-width="3" stroke-linecap="square" sketch:type="MSShapeGroup"></path>
                <path id="Line-3-decoration-1" d="M213.672849,236.368626 C216.750872,233.936205 219.389178,231.851273 222.467201,229.418852 C220.77168,228.179817 219.318376,227.117787 217.622855,225.878752 C216.240353,229.550208 215.055351,232.69717 213.672849,236.368626 C213.672849,236.368626 213.672849,236.368626 213.672849,236.368626 Z" stroke="#979797" stroke-width="3" stroke-linecap="square"></path>
                <path d="M195.55338,283.10956 C195.55338,417.556234 415.140357,420.664928 415.140356,252.954283" id="Path-20" stroke="#979797" stroke-width="3" sketch:type="MSShapeGroup"></path>
                <path id="Path-20-decoration-1" d="M417.805764,264.207229 C416.947728,260.320565 416.14694,257.027303 415.140157,253.230507 C414.047422,256.982291 413.050709,260.168104 411.816684,263.84541" stroke="#979797" stroke-width="3"></path>
                <path d="M183,142.671875 L165.555759,164.045717" id="Path-8" stroke="#979797" stroke-width="3" sketch:type="MSShapeGroup"></path>
                <path id="Path-8-decoration-1" d="M170.432652,153.325596 C168.856046,156.917978 167.504669,159.997163 165.928062,163.589546 C169.131599,161.324981 171.877487,159.383925 175.081023,157.119359" stroke="#979797" stroke-width="3"></path>
                <path d="M125.409085,184.5 L93.4373834,184.5" id="Path-9" stroke="#979797" stroke-width="3" sketch:type="MSShapeGroup"></path>
                <path id="Path-9-decoration-1" d="M105.209085,181.5 C101.429085,182.55 98.1890847,183.45 94.4090847,184.5 C98.1890847,185.55 101.429085,186.45 105.209085,187.5" stroke="#979797" stroke-width="3"></path>
                <path d="M125.409085,196.5 L93.4373834,196.5" id="Path-10" stroke="#979797" stroke-width="3" sketch:type="MSShapeGroup"></path>
                <path id="Path-10-decoration-1" d="M113.809085,193.5 C117.589085,194.55 120.829085,195.45 124.609085,196.5 C120.829085,197.55 117.589085,198.45 113.809085,199.5" stroke="#979797" stroke-width="3"></path>
                <path d="M208.184665,142.671875 L225.628906,164.045717" id="Path-7" stroke="#979797" stroke-width="3" sketch:type="MSShapeGroup"></path>
                <path id="Path-7-decoration-1" d="M216.103642,157.119359 C219.307178,159.383925 222.053067,161.324981 225.256603,163.589546 C223.679997,159.997163 222.32862,156.917978 220.752013,153.325596" stroke="#979797" stroke-width="3"></path>
                <g transform="translate(0.000000, 164.000000)" id="Oval-5" stroke="#4990E2" stroke-width="3" sketch:type="MSShapeGroup">
                    <path d="M64.9272738,41.8961509 C65.1766686,41.9125661 65.4282697,41.9209033 65.6818182,41.9209033 C71.9326774,41.9209033 77,36.8535807 77,30.6027215 C77,24.3518623 71.9326774,19.2845397 65.6818182,19.2845397 C65.2673822,19.2845397 64.8581487,19.3068145 64.4552497,19.3502322 C61.8554392,14.8033465 56.9582952,11.7390851 51.3454545,11.7390851 C50.3209698,11.7390851 49.3203288,11.8411724 48.3531493,12.035729 C44.9493812,5.41717244 38.0520755,0.889833599 30.097353,0.889833599 C22.1182419,0.889833599 15.2030413,5.44497616 11.8103481,12.0966644 C5.05327694,13.5945298 0,19.622134 0,26.8299942 C0,35.1644732 6.75643014,41.9209033 15.0909091,41.9209033 L64.9272738,41.9209033 L64.9272738,41.8961509 Z"></path>
                </g>
            </g>
        </g>
    </g>
</svg>